<svg width="171" height="29" viewBox="0 0 171 29" fill="none" xmlns="http://www.w3.org/2000/svg">
<path d="M9.196 28.324C7.828 28.324 6.46 28.276 5.092 28.18C3.748 28.108 2.344 27.916 0.88 27.604V3.412C2.032 3.196 3.292 3.04 4.66 2.944C6.028 2.824 7.3 2.764 8.476 2.764C10.06 2.764 11.512 2.884 12.832 3.124C14.176 3.34 15.328 3.724 16.288 4.276C17.248 4.828 17.992 5.56 18.52 6.472C19.072 7.36 19.348 8.464 19.348 9.784C19.348 11.776 18.388 13.348 16.468 14.5C18.052 15.1 19.132 15.916 19.708 16.948C20.284 17.98 20.572 19.144 20.572 20.44C20.572 23.056 19.612 25.024 17.692 26.344C15.796 27.664 12.964 28.324 9.196 28.324ZM6.352 17.128V23.572C6.76 23.62 7.204 23.656 7.684 23.68C8.164 23.704 8.692 23.716 9.268 23.716C10.948 23.716 12.304 23.476 13.336 22.996C14.368 22.516 14.884 21.628 14.884 20.332C14.884 19.18 14.452 18.364 13.588 17.884C12.724 17.38 11.488 17.128 9.88 17.128H6.352ZM6.352 12.844H9.088C10.816 12.844 12.052 12.628 12.796 12.196C13.54 11.74 13.912 11.02 13.912 10.036C13.912 9.028 13.528 8.32 12.76 7.912C11.992 7.504 10.864 7.3 9.376 7.3C8.896 7.3 8.38 7.312 7.828 7.336C7.276 7.336 6.784 7.36 6.352 7.408V12.844ZM32.2675 28.36C30.7075 28.336 29.4355 28.168 28.4515 27.856C27.4915 27.544 26.7235 27.112 26.1475 26.56C25.5955 25.984 25.2115 25.3 24.9955 24.508C24.8035 23.692 24.7075 22.78 24.7075 21.772V0.927999L30.0715 0.0639992V20.692C30.0715 21.172 30.1075 21.604 30.1795 21.988C30.2515 22.372 30.3835 22.696 30.5755 22.96C30.7915 23.224 31.0915 23.44 31.4755 23.608C31.8595 23.776 32.3755 23.884 33.0235 23.932L32.2675 28.36ZM52.2621 27.352C51.3501 27.616 50.1741 27.856 48.7341 28.072C47.2941 28.312 45.7821 28.432 44.1981 28.432C42.5901 28.432 41.2461 28.216 40.1661 27.784C39.1101 27.352 38.2701 26.752 37.6461 25.984C37.0221 25.192 36.5781 24.256 36.3141 23.176C36.0501 22.096 35.9181 20.908 35.9181 19.612V9.064H41.2821V18.964C41.2821 20.692 41.5101 21.94 41.9661 22.708C42.4221 23.476 43.2741 23.86 44.5221 23.86C44.9061 23.86 45.3141 23.848 45.7461 23.824C46.1781 23.776 46.5621 23.728 46.8981 23.68V9.064H52.2621V27.352ZM56.3973 18.676C56.3973 16.996 56.6493 15.532 57.1533 14.284C57.6813 13.012 58.3653 11.956 59.2053 11.116C60.0453 10.276 61.0053 9.64 62.0853 9.208C63.1893 8.776 64.3173 8.56 65.4693 8.56C68.1573 8.56 70.2813 9.388 71.8413 11.044C73.4013 12.676 74.1813 15.088 74.1813 18.28C74.1813 18.592 74.1693 18.94 74.1453 19.324C74.1213 19.684 74.0973 20.008 74.0733 20.296H61.9053C62.0253 21.4 62.5413 22.276 63.4533 22.924C64.3653 23.572 65.5893 23.896 67.1253 23.896C68.1093 23.896 69.0693 23.812 70.0053 23.644C70.9653 23.452 71.7453 23.224 72.3453 22.96L73.0653 27.316C72.7773 27.46 72.3933 27.604 71.9133 27.748C71.4333 27.892 70.8933 28.012 70.2933 28.108C69.7173 28.228 69.0933 28.324 68.4213 28.396C67.7493 28.468 67.0773 28.504 66.4053 28.504C64.7013 28.504 63.2133 28.252 61.9413 27.748C60.6933 27.244 59.6493 26.56 58.8093 25.696C57.9933 24.808 57.3813 23.764 56.9733 22.564C56.5893 21.364 56.3973 20.068 56.3973 18.676ZM68.9973 16.624C68.9733 16.168 68.8893 15.724 68.7453 15.292C68.6253 14.86 68.4213 14.476 68.1333 14.14C67.8693 13.804 67.5213 13.528 67.0893 13.312C66.6813 13.096 66.1653 12.988 65.5413 12.988C64.9413 12.988 64.4253 13.096 63.9933 13.312C63.5613 13.504 63.2013 13.768 62.9133 14.104C62.6253 14.44 62.3973 14.836 62.2293 15.292C62.0853 15.724 61.9773 16.168 61.9053 16.624H68.9973ZM93.7288 3.052H99.3448V28H93.7288V17.416H84.2968V28H78.6808V3.052H84.2968V12.592H93.7288V3.052ZM111.994 24.256C112.522 24.256 113.026 24.244 113.506 24.22C113.986 24.196 114.37 24.16 114.658 24.112V20.044C114.442 19.996 114.118 19.948 113.686 19.9C113.254 19.852 112.858 19.828 112.498 19.828C111.994 19.828 111.514 19.864 111.058 19.936C110.626 19.984 110.242 20.092 109.906 20.26C109.57 20.428 109.306 20.656 109.114 20.944C108.922 21.232 108.826 21.592 108.826 22.024C108.826 22.864 109.102 23.452 109.654 23.788C110.23 24.1 111.01 24.256 111.994 24.256ZM111.562 8.56C113.146 8.56 114.466 8.74 115.522 9.1C116.578 9.46 117.418 9.976 118.042 10.648C118.69 11.32 119.146 12.136 119.41 13.096C119.674 14.056 119.806 15.124 119.806 16.3V27.46C119.038 27.628 117.97 27.82 116.602 28.036C115.234 28.276 113.578 28.396 111.634 28.396C110.41 28.396 109.294 28.288 108.286 28.072C107.302 27.856 106.45 27.508 105.73 27.028C105.01 26.524 104.458 25.876 104.074 25.084C103.69 24.292 103.498 23.32 103.498 22.168C103.498 21.064 103.714 20.128 104.146 19.36C104.602 18.592 105.202 17.98 105.946 17.524C106.69 17.068 107.542 16.744 108.502 16.552C109.462 16.336 110.458 16.228 111.49 16.228C112.186 16.228 112.798 16.264 113.326 16.336C113.878 16.384 114.322 16.456 114.658 16.552V16.048C114.658 15.136 114.382 14.404 113.83 13.852C113.278 13.3 112.318 13.024 110.95 13.024C110.038 13.024 109.138 13.096 108.25 13.24C107.362 13.36 106.594 13.54 105.946 13.78L105.262 9.46C105.574 9.364 105.958 9.268 106.414 9.172C106.894 9.052 107.41 8.956 107.962 8.884C108.514 8.788 109.09 8.716 109.69 8.668C110.314 8.596 110.938 8.56 111.562 8.56ZM135.825 17.128C135.345 18.952 134.829 20.764 134.277 22.564C133.749 24.364 133.185 26.176 132.585 28H128.409C127.977 26.992 127.509 25.792 127.005 24.4C126.501 23.008 125.973 21.496 125.421 19.864C124.893 18.208 124.341 16.468 123.765 14.644C123.213 12.796 122.673 10.936 122.145 9.064H127.797C127.989 9.928 128.193 10.876 128.409 11.908C128.649 12.916 128.889 13.96 129.129 15.04C129.393 16.12 129.657 17.212 129.921 18.316C130.209 19.396 130.497 20.44 130.785 21.448C131.097 20.392 131.397 19.312 131.685 18.208C131.997 17.104 132.285 16.024 132.549 14.968C132.837 13.888 133.101 12.856 133.341 11.872C133.605 10.864 133.833 9.928 134.025 9.064H137.913C138.105 9.928 138.321 10.864 138.561 11.872C138.801 12.856 139.053 13.888 139.317 14.968C139.581 16.024 139.857 17.104 140.145 18.208C140.433 19.312 140.733 20.392 141.045 21.448C141.333 20.44 141.621 19.396 141.909 18.316C142.197 17.212 142.461 16.12 142.701 15.04C142.965 13.96 143.205 12.916 143.421 11.908C143.661 10.876 143.877 9.928 144.069 9.064H149.649C149.121 10.936 148.569 12.796 147.993 14.644C147.441 16.468 146.889 18.208 146.337 19.864C145.809 21.496 145.281 23.008 144.753 24.4C144.249 25.792 143.781 26.992 143.349 28H139.173C138.573 26.176 137.985 24.364 137.409 22.564C136.833 20.764 136.305 18.952 135.825 17.128ZM157.9 15.904C158.428 15.328 158.968 14.728 159.52 14.104C160.096 13.48 160.648 12.868 161.176 12.268C161.704 11.644 162.196 11.056 162.652 10.504C163.132 9.952 163.54 9.472 163.876 9.064H170.248C168.976 10.528 167.728 11.932 166.504 13.276C165.304 14.596 163.984 15.964 162.544 17.38C163.264 18.028 164.008 18.808 164.776 19.72C165.544 20.608 166.288 21.532 167.008 22.492C167.728 23.452 168.388 24.412 168.988 25.372C169.588 26.332 170.092 27.208 170.5 28H164.344C163.96 27.376 163.516 26.692 163.012 25.948C162.532 25.18 162.016 24.424 161.464 23.68C160.912 22.912 160.324 22.18 159.7 21.484C159.1 20.788 158.5 20.2 157.9 19.72V28H152.536V0.927999L157.9 0.0639992V15.904Z" fill="white"/>
</svg>
